<svg xmlns="http://www.w3.org/2000/svg" xmlns:xlink="http://www.w3.org/1999/xlink" width="500" zoomAndPan="magnify" viewBox="0 0 375 74.999997" height="100" preserveAspectRatio="xMidYMid meet" version="1.0"><path fill="#ffffff" d="M 190.667969 3.75 C 172.027344 3.75 156.917969 18.859375 156.917969 37.5 C 156.917969 56.140625 172.027344 71.25 190.667969 71.25 C 209.304688 71.25 224.417969 56.140625 224.417969 37.5 C 224.417969 18.859375 209.304688 3.75 190.667969 3.75 " fill-opacity="1" fill-rule="nonzero"/><path fill="#ffffff" d="M 281.578125 3.75 C 262.9375 3.75 247.828125 18.859375 247.828125 37.5 C 247.828125 56.140625 262.9375 71.25 281.578125 71.25 C 300.214844 71.25 315.328125 56.140625 315.328125 37.5 C 315.328125 18.859375 300.214844 3.75 281.578125 3.75 " fill-opacity="1" fill-rule="nonzero"/><path fill="#ffffff" d="M 93.421875 3.75 C 74.785156 3.75 59.671875 18.859375 59.671875 37.5 C 59.671875 56.140625 74.785156 71.25 93.421875 71.25 C 112.0625 71.25 127.171875 56.140625 127.171875 37.5 C 127.171875 18.859375 112.0625 3.75 93.421875 3.75 " fill-opacity="1" fill-rule="nonzero"/></svg>