<svg xmlns="http://www.w3.org/2000/svg" xmlns:xlink="http://www.w3.org/1999/xlink" width="500" zoomAndPan="magnify" viewBox="0 0 375 74.999997" height="100" preserveAspectRatio="xMidYMid meet" version="1.0"><defs><g/></defs><path fill="#0019ff" d="M 123.890625 2.324219 C 117.886719 2.324219 113.015625 7.191406 113.015625 13.199219 C 113.015625 19.203125 117.886719 24.074219 123.890625 24.074219 C 129.898438 24.074219 134.765625 19.203125 134.765625 13.199219 C 134.765625 7.191406 129.898438 2.324219 123.890625 2.324219 " fill-opacity="1" fill-rule="nonzero"/><path fill="#0019ff" d="M 152.988281 2.324219 C 146.980469 2.324219 142.113281 7.191406 142.113281 13.199219 C 142.113281 19.203125 146.980469 24.074219 152.988281 24.074219 C 158.992188 24.074219 163.863281 19.203125 163.863281 13.199219 C 163.863281 7.191406 158.992188 2.324219 152.988281 2.324219 " fill-opacity="1" fill-rule="nonzero"/><path fill="#0019ff" d="M 92.769531 2.324219 C 86.761719 2.324219 81.894531 7.191406 81.894531 13.199219 C 81.894531 19.203125 86.761719 24.074219 92.769531 24.074219 C 98.773438 24.074219 103.644531 19.203125 103.644531 13.199219 C 103.644531 7.191406 98.773438 2.324219 92.769531 2.324219 " fill-opacity="1" fill-rule="nonzero"/><g fill="#050a30" fill-opacity="1"><g transform="translate(46.694636, 62.009031)"><g><path d="M 17.535156 0.597656 C 27.414062 0.597656 33.785156 -6.714844 33.101562 -16.976562 L 16.207031 -16.976562 L 16.207031 -11.71875 L 25.917969 -11.71875 C 25.0625 -8.082031 21.980469 -5.644531 17.621094 -5.644531 C 12.144531 -5.644531 8.640625 -9.578125 8.640625 -14.96875 C 8.640625 -20.441406 12.273438 -24.289062 17.535156 -24.289062 C 20.871094 -24.289062 23.648438 -22.75 25.105469 -20.144531 L 32.417969 -20.144531 C 30.621094 -26.429688 24.675781 -30.535156 17.40625 -30.535156 C 8.296875 -30.535156 1.839844 -24.078125 1.839844 -14.96875 C 1.839844 -5.816406 8.339844 0.597656 17.535156 0.597656 Z M 17.535156 0.597656 "/></g></g></g><g fill="#050a30" fill-opacity="1"><g transform="translate(81.59068, 62.009031)"><g><path d="M 14.285156 0.597656 C 21.726562 0.597656 26.855469 -4.234375 26.855469 -11.246094 C 26.855469 -18.21875 21.726562 -23.050781 14.285156 -23.050781 C 6.800781 -23.050781 1.667969 -18.21875 1.667969 -11.246094 C 1.667969 -4.234375 6.800781 0.597656 14.285156 0.597656 Z M 8.082031 -11.246094 C 8.082031 -14.925781 10.648438 -17.492188 14.285156 -17.492188 C 17.917969 -17.492188 20.441406 -14.925781 20.441406 -11.246094 C 20.441406 -7.570312 17.917969 -5.003906 14.285156 -5.003906 C 10.648438 -5.003906 8.082031 -7.570312 8.082031 -11.246094 Z M 8.082031 -11.246094 "/></g></g></g><g fill="#050a30" fill-opacity="1"><g transform="translate(110.114769, 62.009031)"><g><path d="M 14.285156 0.597656 C 21.726562 0.597656 26.855469 -4.234375 26.855469 -11.246094 C 26.855469 -18.21875 21.726562 -23.050781 14.285156 -23.050781 C 6.800781 -23.050781 1.667969 -18.21875 1.667969 -11.246094 C 1.667969 -4.234375 6.800781 0.597656 14.285156 0.597656 Z M 8.082031 -11.246094 C 8.082031 -14.925781 10.648438 -17.492188 14.285156 -17.492188 C 17.917969 -17.492188 20.441406 -14.925781 20.441406 -11.246094 C 20.441406 -7.570312 17.917969 -5.003906 14.285156 -5.003906 C 10.648438 -5.003906 8.082031 -7.570312 8.082031 -11.246094 Z M 8.082031 -11.246094 "/></g></g></g><g fill="#050a30" fill-opacity="1"><g transform="translate(138.638859, 62.009031)"><g><path d="M 13.085938 0.597656 C 16.335938 0.597656 19.117188 -0.554688 21.125 -2.566406 L 21.894531 0 L 26.730469 0 L 26.730469 -31.648438 L 20.226562 -31.648438 L 20.226562 -20.699219 C 18.304688 -22.195312 15.867188 -23.050781 13.085938 -23.050781 C 6.414062 -23.050781 1.667969 -18.132812 1.667969 -11.246094 C 1.667969 -4.277344 6.414062 0.597656 13.085938 0.597656 Z M 8.082031 -11.246094 C 8.082031 -14.882812 10.605469 -17.492188 14.285156 -17.492188 C 17.917969 -17.492188 20.441406 -14.882812 20.441406 -11.246094 C 20.441406 -7.570312 17.917969 -5.003906 14.285156 -5.003906 C 10.605469 -5.003906 8.082031 -7.570312 8.082031 -11.246094 Z M 8.082031 -11.246094 "/></g></g></g><g fill="#050a30" fill-opacity="1"><g transform="translate(168.616954, 62.009031)"><g><path d="M 10.777344 0 L 17.578125 0 L 17.578125 -23.5625 L 27.070312 -23.5625 L 27.070312 -29.9375 L 1.28125 -29.9375 L 1.28125 -23.5625 L 10.777344 -23.5625 Z M 10.777344 0 "/></g></g></g><g fill="#050a30" fill-opacity="1"><g transform="translate(196.969986, 62.009031)"><g><path d="M 3.25 0 L 9.75 0 L 9.75 -9.921875 C 9.75 -14.753906 12.015625 -16.550781 15.738281 -16.550781 L 18.21875 -16.550781 L 18.21875 -22.453125 L 15.78125 -22.453125 C 12.488281 -22.453125 10.390625 -21.554688 8.9375 -19.457031 L 8.082031 -22.453125 L 3.25 -22.453125 Z M 3.25 0 "/></g></g></g><g fill="#050a30" fill-opacity="1"><g transform="translate(216.641761, 62.009031)"><g><path d="M 10.734375 0.425781 C 14.070312 0.425781 16.808594 -0.640625 18.730469 -2.609375 L 19.457031 0 L 24.289062 0 L 24.289062 -13.515625 C 24.289062 -19.457031 20.269531 -23.050781 13.558594 -23.050781 C 7.824219 -23.050781 4.0625 -20.3125 3.25 -15.4375 L 9.492188 -15.4375 C 9.878906 -17.019531 11.503906 -18.089844 13.597656 -18.089844 C 16.164062 -18.089844 17.917969 -16.636719 17.917969 -14.410156 L 17.917969 -13.386719 L 9.792969 -13.386719 C 5.132812 -13.386719 2.136719 -10.691406 2.136719 -6.542969 C 2.136719 -2.222656 5.429688 0.425781 10.734375 0.425781 Z M 8.554688 -6.800781 C 8.554688 -8.339844 9.835938 -9.324219 11.804688 -9.324219 L 17.960938 -9.324219 C 17.832031 -6.285156 15.480469 -4.234375 12.230469 -4.234375 C 10.007812 -4.234375 8.554688 -5.261719 8.554688 -6.800781 Z M 8.554688 -6.800781 "/></g></g></g><g fill="#050a30" fill-opacity="1"><g transform="translate(243.75462, 62.009031)"><g><path d="M 3.25 0 L 9.75 0 L 9.75 -11.761719 C 9.75 -15.308594 11.71875 -17.492188 14.710938 -17.492188 C 17.492188 -17.492188 19.160156 -15.523438 19.160156 -12.230469 L 19.160156 0 L 25.660156 0 L 25.660156 -12.914062 C 25.660156 -19.117188 22.109375 -23.050781 16.25 -23.050781 C 13.257812 -23.050781 10.5625 -22.023438 8.765625 -19.929688 L 8.082031 -22.453125 L 3.25 -22.453125 Z M 3.25 0 "/></g></g></g><g fill="#050a30" fill-opacity="1"><g transform="translate(272.235944, 62.009031)"><g><path d="M 11.890625 0.597656 C 17.960938 0.597656 21.640625 -2.054688 21.640625 -6.328125 C 21.640625 -10.007812 18.902344 -12.359375 13.34375 -13.472656 C 9.492188 -14.242188 8.296875 -14.882812 8.296875 -16.25 C 8.296875 -17.578125 9.492188 -18.347656 11.417969 -18.347656 C 13.597656 -18.347656 14.925781 -17.363281 15.054688 -15.652344 L 21.253906 -15.652344 C 20.957031 -20.398438 17.449219 -23.050781 11.460938 -23.050781 C 5.429688 -23.050781 2.011719 -20.613281 2.011719 -16.25 C 2.011719 -12.53125 4.574219 -10.304688 10.304688 -9.28125 C 13.769531 -8.679688 15.226562 -7.785156 15.226562 -6.371094 C 15.226562 -5.046875 14.027344 -4.234375 11.972656 -4.234375 C 9.578125 -4.234375 8.125 -5.386719 8.082031 -7.226562 L 1.710938 -7.226562 C 1.710938 -2.523438 5.730469 0.597656 11.890625 0.597656 Z M 11.890625 0.597656 "/></g></g></g><g fill="#050a30" fill-opacity="1"><g transform="translate(295.628252, 62.009031)"><g><path d="M 3.25 0 L 9.75 0 L 9.75 -22.453125 L 3.25 -22.453125 Z M 2.308594 -29.722656 C 2.308594 -27.328125 4.019531 -25.660156 6.5 -25.660156 C 8.980469 -25.660156 10.691406 -27.328125 10.691406 -29.722656 C 10.691406 -32.117188 8.980469 -33.785156 6.5 -33.785156 C 4.019531 -33.785156 2.308594 -32.117188 2.308594 -29.722656 Z M 2.308594 -29.722656 "/></g></g></g><g fill="#050a30" fill-opacity="1"><g transform="translate(308.628742, 62.009031)"><g><path d="M 14.070312 0 L 18.175781 0 L 18.175781 -5.644531 L 15.480469 -5.644531 C 12.914062 -5.644531 11.71875 -6.886719 11.71875 -9.492188 L 11.71875 -17.148438 L 17.875 -17.148438 L 17.875 -22.453125 L 11.71875 -22.453125 L 11.71875 -28.269531 L 6.671875 -28.269531 L 6.285156 -25.359375 C 5.945312 -23.050781 5.304688 -22.453125 2.867188 -22.453125 L 0.855469 -22.453125 L 0.855469 -17.148438 L 5.21875 -17.148438 L 5.21875 -8.511719 C 5.21875 -3.035156 8.382812 0 14.070312 0 Z M 14.070312 0 "/></g></g></g></svg>